<?xml version="1.0" encoding="utf-8"?>
<!-- Generator: Adobe Illustrator 27.5.0, SVG Export Plug-In . SVG Version: 6.00 Build 0)  -->
<svg version="1.1" id="Camada_1" xmlns="http://www.w3.org/2000/svg" xmlns:xlink="http://www.w3.org/1999/xlink" x="0px" y="0px"
	 viewBox="0 0 512 512" style="enable-background:new 0 0 512 512;" xml:space="preserve">
<style type="text/css">
	.st0{fill:#1D1D1B;}
	.st1{fill:#FFFFFF;}
</style>
<circle class="st0" cx="256" cy="256" r="250"/>
<g transform="translate(0.000000,512.000000) scale(0.100000,-0.100000)">
	<path class="st1" d="M2221.8,2068.9c0,14.7-5.1,33.3-11.9,41.8c-11.9,13.9-28,14.7-362.5,18.6l-349.8,3.9l85.7,91.4
		c117.2,124,129,139.5,129,163.5c0,40.3-52.6,69.7-97.6,53.5c-21.2-7-326.8-335.5-332.8-357.2c-7.6-27.1,12.7-61.2,41.6-70.5
		c17-5.4,144.3-8.5,355.7-8.5c181.7,0,330.2-1.5,330.2-3.9c0-2.3-223.3-268.9-496.6-592.7c-272.5-323.9-500-595-505.1-603.6
		c-12.7-23.2-10.2-43.4,9.3-66.6c16.1-17.8,23.8-20.1,53.5-17.8c31.4,2.3,172.3,95.3,1322.6,872.4
		c1394.8,942.1,1315,884.8,1284.4,938.3c-6.8,13.2-14.4,24.8-15.3,25.6c-0.8,1.5-195.3,3.9-432.1,6.2l-431.2,3.9l433.8,461
		c237.7,253.4,438.9,471.1,445.7,483.5c14.4,23.2,11.9,45.7-8.5,70.5c-11.9,14.7-24.6,15.5-395.6,19.4l-382.9,3.9l379.5,476.5
		c455.9,572.6,422.8,528.4,415.1,555.5c-8.5,34.1-28.9,48.8-63.7,48.8c-28,0-89.1-38-528.9-323.1
		c-355.7-231.7-501.7-330.8-511.9-348.7c-14.4-23.2-14.4-26.3-0.8-51.9c16.1-31,46.7-42.6,81.5-30.2c11.9,3.9,163.8,99.9,337,213.1
		l314.9,205.3l-312.4-392c-271.7-340.1-312.4-395.9-313.2-419.9c0-18.6,5.9-32.5,17.8-42.6c17-13.9,39.1-14.7,389.7-18.6l372.7-3.9
		L3086,3066.8c-532.3-566.4-507.7-539.3-507.7-564.8c0-12.4,7.6-30.2,16.1-40.3l16.1-18.6l398.1-3.9l398.1-3.9l-980.5-662.4
		c-539.1-364.1-983.9-664-987.3-664.8"/>
	<path class="st1" d="M1439.1,1108.1c-4.2-1.5,170.6,207.6,388,465.6c343,407.5,394.7,472.6,394.7,495.1"/>
	<path class="st1" d="M1617.4,4297.9c-281.8-182.8-520.4-341.7-530.6-352.5c-29.7-29.4-22.9-77.5,11.9-93c8.5-3.9,73-8.5,144.3-10.8
		l128.2-3.9L1232,3655.6c-143.5-187.5-154.5-209.2-127.3-241.7c16.1-19.4,52.6-30.2,75.6-22.5c24.6,8.5,1017,648.5,1031.4,665.5
		c15.3,18.6,12.7,58.9-5.9,79.8c-15.3,17.8-22.1,18.6-152.8,22.5l-135.8,3.9l64.5,81.4c220.7,275,240.2,302.9,240.2,330.1
		c0,34.9-24.6,57.3-63.7,57.3C2133.5,4631.9,2055.4,4583.8,1617.4,4297.9z M1780.4,4205c-71.3-89.9-81.5-118.5-56-151.1
		c10.2-12.4,25.5-15.5,114.6-18.6l101.9-3.9l-191.9-124c-106.1-68.2-219-141-250.4-161.9l-58.6-37.2l58.6,75.9
		c74.7,97.6,80.6,107.7,73.9,134.8c-8.5,36.4-24.6,42.6-126.5,46.5l-94.2,3.9l246.2,161.2c135,88.3,247,160.4,247.9,160.4
		C1846.6,4291,1817.7,4252.2,1780.4,4205z"/>
	<path class="st1" d="M1416,3171.4l467.8,305.3c257.2,167.4,473.7,312.2,480.5,320.8c17,22.5,16.1,54.2-1.7,74.4
		c-18.7,20.1-60.3,27.1-83.2,14.7c-9.3-4.6-268.3-172-574.7-371.9c-427-278.9-558.6-368-564.5-384.3c-10.2-28.7-5.1-51.1,16.1-68.2
		c16.1-13.9,42.4-14.7,466.1-17c247-0.8,449.1-3.9,449.1-5.4c0-2.3-84.9-93.7-187.6-203.8c-103.6-109.2-193.6-210-200.3-222.4
		c-15.3-28.7-5.1-58.9,26.3-77.5c46.7-27.9,55.2-21.7,318.3,259.6c135,144.1,252.1,271.2,259.8,282c16.1,22.5,11,59.7-10.2,75.9
		c-11,7.7-104.4,10.8-438,13.9L1416,3171.4"/>
	<path class="st1" d="M3779.5,2247.1c-62.8-35.6-1020.4-663.2-1033.1-677.2c-18.7-18.6-19.5-59.7-3.4-80.6
		c11-13.2,26.3-14.7,152-18.6l140.1-3.9l-138.4-182.1c-152-199.1-162.1-219.3-120.5-254.1c39.9-34.1,52.6-27.9,328.5,150.3
		c142.6,92.2,265.7,172.8,274.2,179c20.4,17.8,19.5,67.4-2.5,87.6c-32.3,29.4-65.4,20.9-163.8-42.6c-49.2-31.8-92.5-58.1-95.1-58.1
		c-2.5,0,22.1,35.6,55.2,79c47.5,62.8,59.4,84.5,59.4,106.9c0,47.3-20.4,57.3-123.9,62l-88.3,3.9l247.9,161.9
		c136.7,89.1,244.5,156.5,238.5,151.1c-36.5-41.8-129.9-165.8-134.1-178.2c-8.5-22.5,10.2-57.3,34.8-68.2
		c11.9-4.6,59.4-8.5,106.1-8.5h85.7l-43.3-31c-23.8-17.8-45.8-40.3-48.4-51.9c-13.6-47.3,28.9-86,78.9-72.8
		c32.3,8.5,286.9,173.6,294.6,190.6c10.2,25.6,4.2,51.1-16.1,69.7c-20.4,18.6-23.8,19.4-156.2,19.4h-135.8l146.9,184.4
		c80.6,100.7,151.1,191.4,156.2,200.7C3911.1,2225.4,3842.4,2283.5,3779.5,2247.1z"/>
</g>
</svg>
